# AST/ASF file generated using VICON BodyLanguage
# -----------------------------------------------
:version 1.10
:name VICON
:units
  mass 1.0
  length 0.45
  angle deg
:documentation
   .ast/.asf automatically generated from VICON data using
   VICON BodyBuilder and BodyLanguage model FoxedUp or BRILLIANT.MOD
:root
   order TX TY TZ RX RY RZ
   axis XYZ
   position 0 0 0  
   orientation 0 0 0 
:bonedata
  begin
     id 1 
     name lhipjoint
     direction 0.62366 -0.717238 0.310833 
     length 2.53602 
     axis 0 0 0  XYZ
  end
  begin
     id 2 
     name lfemur
     direction 0.34202 -0.939693 0  
     length 7.40817  
     axis 0 0 20  XYZ
    dof rx ry rz
    limits (-160.0 20.0)
           (-70.0 70.0)
           (-60.0 70.0)
  end
  begin
     id 3 
     name ltibia
     direction 0.34202 -0.939693 0   
     length 7.7045   
     axis 0 0 20   XYZ
    dof rx
    limits (-10.0 170.0)
  end
  begin
     id 4 
     name lfoot
     direction 0.0673888 -0.185149 0.980397   
     length 2.09456   
     axis -90 7.62852e-016 20   XYZ
    dof rx rz
    limits (-45.0 90.0)
           (-70.0 20.0)
  end
  begin
     id 5 
     name ltoes
     direction 1.53575e-011 -4.21994e-011 1   
     length 1.05543   
     axis -90 7.62852e-016 20   XYZ
    dof rx
    limits (-90.0 20.0)
  end
  begin
     id 6 
     name rhipjoint
     direction -0.489018 -0.800347 0.346851   
     length 2.27268  
     axis 0 0 0  XYZ 
  end
  begin
     id 7 
     name rfemur
     direction -0.34202 -0.939693 0   
     length 7.55487   
     axis 0 0 -20   XYZ
    dof rx ry rz
    limits (-160.0 20.0)
           (-70.0 70.0)
           (-70.0 60.0)
  end
  begin
     id 8 
     name rtibia
     direction -0.34202 -0.939693 0   
     length 7.78969   
     axis 0 0 -20   XYZ
    dof rx
    limits (-10.0 170.0)
 end
 begin
     id 9 
     name rfoot
     direction -0.0859318 -0.236096 0.967923   
     length 2.19143  
     axis -90 -7.62852e-016 -20   XYZ
    dof rx rz
    limits (-45.0 90.0)
           (-20.0 70.0)
  end
  begin
     id 10 
     name rtoes
     direction -1.53538e-011 -4.21989e-011 1   
     length 1.09845   
     axis -90 -7.62852e-016 -20   XYZ
    dof rx
    limits (-90.0 20.0)
  end
  begin
     id 11 
     name lowerback
     direction -0.00762546 0.998978 -0.0445553   
     length 1.98161   
     axis 0 0 0   XYZ
    dof rx ry rz
    limits (-20.0 45.0)
           (-30.0 30.0)
           (-30.0 30.0)
  end
  begin
     id 12 
     name upperback
     direction 0.0422361 0.998867 -0.0219156   
     length 1.97558   
     axis 0 0 0   XYZ
    dof rx ry rz
    limits (-20.0 45.0)
           (-30.0 30.0)
           (-30.0 30.0)
  end
  begin
     id 13 
     name thorax
     direction 0.0442465 0.999021 7.47603e-005   
     length 1.97799   
     axis 0 0 0   XYZ
    dof rx ry rz
    limits (-20.0 45.0)
           (-30.0 30.0)
           (-30.0 30.0)
  end
  begin
     id 14 
     name lowerneck
     direction 0.00312169 0.984641 0.174564   
     length 1.78995   
     axis 0 0 0   XYZ
    dof rx ry rz
    limits (-20.0 45.0)
           (-30.0 30.0)
           (-30.0 30.0)
  end
  begin
     id 15 
     name upperneck
     direction -0.0383028 0.985255 -0.166749   
     length 1.83053   
     axis 0 0 0   XYZ
    dof rx ry rz
    limits (-20.0 45.0)
           (-30.0 30.0)
           (-30.0 30.0)
  end
  begin
     id 16
     name head
     direction -0.0129546 0.997059 -0.0755386  
     length 1.84088  
     axis 0 0 0   XYZ
    dof rx ry rz
    limits (-20.0 45.0)
           (-30.0 30.0)
           (-30.0 30.0)
  end
  begin
     id 17 
     name lclavicle
     direction 0.912857 0.370519 -0.171488  
     length 3.51279  
     axis 0 0 0   XYZ
    dof ry rz
    limits (-20.0 10.0)
           (0.0 20.0)
  end
  begin
     id 18 
     name lhumerus
     direction 1 -4.48962e-011 3.64361e-027   
     length 4.95663   
     axis 180 -30 -90   XYZ
    dof rx ry rz
    limits (-60.0 90.0)
           (-90.0 90.0)
           (-90.0 90.0)
  end
  begin
     id 19
     name lradius
     direction 1 -4.48974e-011 5.97202e-027   
     length 3.38177   
     axis 180 -30 -90   XYZ
    dof rx
    limits (-10.0 170.0)
  end
  begin
     id 20
     name lwrist
     direction 1 -4.4896e-011 9.83288e-027   
     length 1.69088   
     axis -9.31221e-015 90 90   XYZ
    dof ry
    limits (-180.0 0.0)
 end
  begin
     id 21 
     name lhand
     direction 1 -4.4902e-011 1.96551e-026   
     length 0.662909   
     axis -1.25475e-014 90 90   XYZ
    dof rx rz
    limits (-90.0 90.0)
           (-45.0 45.0)
  end
  begin
     id 22 
     name lfingers
     direction 1 -4.48971e-011 3.93277e-026   
     length 0.534454   
     axis -2.50945e-014 90 90   XYZ
    dof rx
    limits (0.0 90.0)
  end
  begin
     id 23
     name lthumb
     direction 0.707107 -6.34933e-011 0.707107   
     length 0.767373   
     axis -90 45 -4.80359e-014   XYZ
    dof rx rz
    limits (-45.0 45.0)
           (-45.0 45.0)
  end
  begin
     id 24 
     name rclavicle
     direction -0.900919 0.395364 -0.178976   
     length 3.40627  
     axis 0 0 0   XYZ 
    dof ry rz
    limits (-10.0 20.0)
           (-20.0 0.0)
  end
  begin
     id 25 
     name rhumerus
     direction -1 -4.48969e-011 1.03875e-027  
     length 5.08365   
     axis 180 30 90   XYZ
    dof rx ry rz
    limits (-90.0 60.0)
           (-90.0 90.0)
           (-90.0 90.0)
  end
  begin
     id 26 
     name rradius
     direction -1 -4.48951e-011 5.02733e-027   
     length 3.35984   
     axis 180 30 90   XYZ
    dof rx
    limits (-10.0 170.0)
  end
  begin
     id 27 
     name rwrist
     direction -1 -4.49011e-011 9.82828e-027   
     length 1.67992   
     axis -9.31221e-015 -90 -90   XYZ
    dof ry
    limits (-180.0 0.0)
  end
  begin
     id 28
     name rhand
     direction -1 -4.48894e-011 1.96774e-026   
     length 0.820764   
     axis -1.25475e-014 -90 -90   XYZ
    dof rx rz
    limits (-90.0 90.0)
           (-45.0 45.0)
  end
  begin
     id 29
     name rfingers
     direction -1 -4.49095e-011 3.92833e-026   
     length 0.661721   
     axis -2.50945e-014 -90 -90   XYZ
    dof rx
    limits (0.0 90.0)
  end
  begin
     id 30
     name rthumb
     direction -0.707107 -6.34881e-011 0.707107   
     length 0.950103   
     axis -90 -45 4.80359e-014   XYZ
    dof rx rz
    limits (-45.0 45.0)
           (-45.0 45.0)
  end
:hierarchy
  begin
    root lhipjoint rhipjoint lowerback
    lhipjoint lfemur
    lfemur ltibia
    ltibia lfoot
    lfoot ltoes
    rhipjoint rfemur
    rfemur rtibia
    rtibia rfoot
    rfoot rtoes
    lowerback upperback
    upperback thorax
    thorax lowerneck lclavicle rclavicle
    lowerneck upperneck
    upperneck head
    lclavicle lhumerus
    lhumerus lradius
    lradius lwrist
    lwrist lhand lthumb
    lhand lfingers
    rclavicle rhumerus
    rhumerus rradius
    rradius rwrist
    rwrist rhand rthumb
    rhand rfingers
  end

#!OML:ASF I:\golf\golf\golf 2\Subject 1\2002-09-07\Subject1.ASF
:FULLY-SPECIFIED
:DEGREES
95
root -6.61996 17.7278 0.296492 -20.3723 83.3177 -37.461
lowerback 4.39665 3.16398 -2.75226
upperback 3.68798 4.2248 4.12615
thorax 0.83605 2.07347 5.64879
lowerneck -15.7156 -0.798287 1.08847
upperneck 38.6357 2.10382 -4.69953
head 16.6488 0.888087 -1.74102
rclavicle 3.1408e-014 7.95139e-015
rhumerus -9.83706 -0.59601 -103.34
rradius 30.291
rwrist -47.7337
rhand -19.7324 -5.12775
rfingers 7.12502
rthumb 6.59811 -35.005
lclavicle 3.1408e-014 7.95139e-015
lhumerus -1.29795 -81.3256 97.0618
lradius 26.595
lwrist 43.2013
lhand -1.28547 71.0028
lfingers 7.12502
lthumb -155.641 80.5252
rfemur -33.9153 0.661542 12.6028
rtibia 31.5192
rfoot -8.80568 -9.02514
rtoes 1.61212
lfemur -30.4462 13.178 -10.0235
ltibia 33.3857
lfoot -12.9487 1.46169
ltoes -22.9373
96
root -6.62542 17.731 0.316426 -18.0748 82.6906 -35.138
lowerback 4.34148 3.15667 -2.90505
upperback 3.81015 4.20814 4.0183
thorax 0.992879 2.05663 5.6316
lowerneck -15.7729 -0.551868 1.1063
upperneck 38.5041 2.43617 -4.69497
head 16.6104 1.01679 -1.68122
rclavicle 0 -4.21423e-014
rhumerus -9.77303 -0.55891 -103.585
rradius 30.7915
rwrist -48.1531
rhand -21.263 -4.77061
rfingers 7.12502
rthumb 5.12041 -34.6887
lclavicle 0 -4.21423e-014
lhumerus 2.76033 -82.4191 92.5621
lradius 26.9336
lwrist 43.6395
lhand -0.284694 69.9852
lfingers 7.12502
lthumb -154.682 81.6752
rfemur -34.0949 0.870406 12.7891
rtibia 31.5023
rfoot -8.78982 -8.39055
rtoes 1.80614
lfemur -30.2049 13.0037 -9.75379
ltibia 33.374
lfoot -12.8573 2.26645
ltoes -22.1248
97
root -6.63268 17.7305 0.339978 -16.2371 82.0065 -33.3023
lowerback 4.25361 3.1678 -2.99388
upperback 3.91739 4.21783 3.84599
thorax 1.15818 2.05399 5.51075
lowerneck -15.7838 -0.303529 1.24205
upperneck 38.339 2.73569 -4.71395
head 16.5425 1.14649 -1.65836
rclavicle 6.36111e-015 4.45278e-014
rhumerus -9.79029 -0.258739 -103.808
rradius 31.5093
rwrist -48.996
rhand -23.6208 -3.91245
rfingers 7.12502
rthumb 2.84353 -33.8732
lclavicle 6.36111e-015 4.45278e-014
lhumerus 7.90001 -83.4802 86.9695
lradius 27.221
lwrist 43.9292
lhand 0.815109 69.4342
lfingers 7.12502
lthumb -153.629 82.3796
rfemur -34.3044 1.16561 13.0107
rtibia 31.4738
rfoot -8.66507 -7.88668
rtoes 1.5301
lfemur -29.9824 13.0061 -9.475
ltibia 33.352
lfoot -12.7447 3.04808
ltoes -22.1619
98
root -6.63945 17.728 0.365058 -14.598 81.2973 -31.6399
lowerback 4.16108 3.18451 -3.40062
upperback 4.02659 4.23074 3.88146
thorax 1.29232 2.04674 5.78799
lowerneck -15.7316 -0.0618018 1.24547
upperneck 38.1333 3.14206 -4.90767
head 16.4482 1.28005 -1.66817
rclavicle -2.22639e-014 3.4191e-014
rhumerus -9.91908 0.218326 -103.671
rradius 32.3506
rwrist -49.821
rhand -24.2311 -3.88064
rfingers 7.12502
rthumb 2.25412 -33.8485
lclavicle -2.22639e-014 3.4191e-014
lhumerus 15.5026 -84.5018 79.1646
lradius 27.6285
lwrist 44.1487
lhand 1.3251 69.3495
lfingers 7.12502
lthumb -153.141 82.5384
rfemur -34.4694 1.45196 13.2428
rtibia 31.4372
rfoot -8.56193 -7.37486
rtoes 1.27284
lfemur -29.7227 13.2006 -9.23027
ltibia 33.345
lfoot -12.6912 3.73574
ltoes -23.0453
99
root -6.64768 17.7275 0.387872 -13.4926 80.5508 -30.5549
lowerback 4.093 3.16278 -3.67171
upperback 4.10883 4.1958 3.88027
thorax 1.4027 2.0187 5.94989
lowerneck -15.7638 0.225194 1.28429
upperneck 37.9916 3.59103 -5.05645
head 16.4118 1.44097 -1.65832
rclavicle 4.77083e-015 1.19271e-015
rhumerus -9.95786 0.256511 -103.608
rradius 33.0373
rwrist -50.0582
rhand -23.7044 -5.00058
rfingers 7.12502
rthumb 2.76288 -34.9624
lclavicle 4.77083e-015 1.19271e-015
lhumerus 24.3959 -85.1105 70.2072
lradius 27.8406
lwrist 44.0811
lhand 1.06889 69.2576
lfingers 7.12502
lthumb -153.386 82.5928
rfemur -34.6782 1.62982 13.5753
rtibia 31.3946
rfoot -8.48071 -6.74704
rtoes 1.2094
lfemur -29.485 13.3747 -8.91617
ltibia 33.3376
lfoot -12.618 4.42695
ltoes -23.7096
100
root -6.65632 17.7265 0.415679 -13.0199 79.7006 -30.0967
lowerback 4.06046 3.15143 -3.82448
upperback 4.19186 4.17741 3.85397
thorax 1.50165 2.00174 6.01539
lowerneck -15.8803 0.528003 1.31031
upperneck 37.9206 4.02738 -5.08814
head 16.4297 1.60878 -1.59797
rclavicle -4.77083e-015 -5.1684e-014
rhumerus -9.99146 0.271778 -103.571
rradius 33.7038
rwrist -50.4011
rhand -23.7181 -6.21608
rfingers 7.12502
rthumb 2.74963 -36.1781
lclavicle -4.77083e-015 -5.1684e-014
lhumerus 35.1236 -85.5845 59.476
lradius 27.8064
lwrist 43.949
lhand 1.105 68.3624
lfingers 7.12502
lthumb -153.352 83.4932
rfemur -34.8692 1.82339 14.0628
rtibia 31.325
rfoot -8.30659 -6.10052
rtoes 0.619457
lfemur -29.183 13.5354 -8.42506
ltibia 33.3307
lfoot -12.5386 5.10826
ltoes -23.732
101
root -6.66196 17.724 0.446814 -12.3903 78.7633 -29.3738
lowerback 4.09892 3.1787 -4.03958
upperback 4.28997 4.20774 3.81389
thorax 1.56736 2.00846 6.09584
lowerneck -15.9593 0.816651 1.28776
upperneck 37.8799 4.44075 -5.0569
head 16.4495 1.7703 -1.5052
rclavicle 6.75868e-015 1.35174e-014
rhumerus -10.0566 0.14542 -103.514
rradius 34.4171
rwrist -50.9824
rhand -24.1525 -6.89149
rfingers 7.12502
rthumb 2.33008 -36.8585
lclavicle 6.75868e-015 1.35174e-014
lhumerus 48.841 -85.9504 45.7335
lradius 27.7901
lwrist 44.0639
lhand 1.46701 66.5408
lfingers 7.12502
lthumb -153.005 85.368
rfemur -34.9105 2.06109 14.5277
rtibia 31.2168
rfoot -8.19862 -5.35288
rtoes 0.579371
lfemur -28.7075 13.7264 -7.92879
ltibia 33.3289
lfoot -12.5176 5.79821
ltoes -23.9838
102
root -6.66702 17.7216 0.475929 -11.3123 77.8096 -28.2125
lowerback 4.09964 3.16744 -4.39753
upperback 4.37241 4.18348 3.7586
thorax 1.63745 1.9839 6.24569
lowerneck -15.9252 1.1445 1.29055
upperneck 37.7349 4.92894 -5.12177
head 16.3951 1.95486 -1.44438
rclavicle -3.16068e-014 5.76476e-014
rhumerus -10.1568 0.0869819 -103.432
rradius 35.1341
rwrist -51.7536
rhand -24.8532 -7.04525
rfingers 7.12502
rthumb 1.65336 -37.0186
lclavicle -3.16068e-014 5.76476e-014
lhumerus 61.019 -85.9841 33.4769
lradius 27.9435
lwrist 44.4942
lhand 1.25366 65.4447
lfingers 7.12502
lthumb -153.209 86.4326
rfemur -34.9598 2.26697 14.8809
rtibia 31.0873
rfoot -8.17211 -4.47549
rtoes 0.880523
lfemur -28.2114 13.8531 -7.5434
ltibia 33.3142
lfoot -12.5266 6.51588
ltoes -24.0393
103
root -6.67206 17.7201 0.506665 -10.4655 76.7699 -27.3759
lowerback 3.99593 3.10798 -4.7704
upperback 4.43204 4.09796 3.7284
thorax 1.74897 1.92634 6.43889
lowerneck -15.8037 1.5461 1.32088
upperneck 37.4438 5.53443 -5.28648
head 16.2562 2.17929 -1.40994
rclavicle 5.36719e-015 -1.61016e-014
rhumerus -10.3076 0.29155 -103.276
rradius 35.9179
rwrist -52.6743
rhand -25.7551 -7.0345
rfingers 7.12502
rthumb 0.782262 -37.0128
lclavicle 5.36719e-015 -1.61016e-014
lhumerus 73.1147 -85.8121 21.2678
lradius 28.0755
lwrist 44.7325
lhand 1.21335 65.216
lfingers 7.12502
lthumb -153.248 86.6555
rfemur -35.1151 2.48561 15.3117
rtibia 30.9478
rfoot -8.12829 -3.49045
rtoes 0.921389
lfemur -27.7745 14.0943 -7.11608
ltibia 33.2809
lfoot -12.5351 7.17981
ltoes -23.6858
104
root -6.67629 17.7208 0.537898 -9.96883 75.7683 -26.8961
lowerback 3.90924 2.98589 -5.08713
upperback 4.45802 3.9298 3.68684
thorax 1.83371 1.82976 6.58933
lowerneck -15.6277 2.00163 1.43142
upperneck 37.1569 6.2028 -5.47225
head 16.1166 2.44113 -1.38881
rclavicle -2.67365e-014 -3.97569e-014
rhumerus -10.5898 0.694825 -103.11
rradius 36.8889
rwrist -53.7571
rhand -26.9719 -7.34308
rfingers 7.12502
rthumb -0.392985 -37.3225
lclavicle -2.67365e-014 -3.97569e-014
lhumerus 83.9237 -85.48 10.3994
lradius 28.1703
lwrist 44.476
lhand 1.553 64.7303
lfingers 7.12502
lthumb -152.923 87.1913
rfemur -35.2335 2.69451 15.7949
rtibia 30.78
rfoot -8.09136 -2.53585
rtoes 1.2651
lfemur -27.3531 14.4344 -6.67102
ltibia 33.2542
lfoot -12.5382 7.78829
ltoes -23.6701
105
root -6.68123 17.7217 0.571751 -9.14309 74.7554 -26.1005
lowerback 3.78267 2.87786 -5.48958
upperback 4.46509 3.77973 3.53143
thorax 1.92235 1.74033 6.66857
lowerneck -15.4855 2.46388 1.75901
upperneck 36.9516 6.8156 -5.64872
head 16.035 2.71138 -1.41372
rclavicle 1.49089e-015 1.39646e-014
rhumerus -10.8511 0.947739 -103.045
rradius 37.8443
rwrist -54.5635
rhand -27.9353 -7.91078
rfingers 7.12502
rthumb -1.32338 -37.8864
lclavicle 1.49089e-015 1.39646e-014
lhumerus 89.8273 -85.1086 4.44693
lradius 28.2837
lwrist 43.7208
lhand 1.94885 64.8024
lfingers 7.12502
lthumb -152.544 87.1786
rfemur -35.3491 3.01337 16.1751
rtibia 30.578
rfoot -7.99118 -1.78709
rtoes 0.825154
lfemur -26.9514 14.8205 -6.33318
ltibia 33.2423
lfoot -12.4796 8.43705
ltoes -24.3661
106
root -6.68517 17.7231 0.605578 -8.43409 73.665 -25.4658
lowerback 3.6085 2.79264 -5.80343
upperback 4.45745 3.66512 3.32968
thorax 2.02537 1.67086 6.64814
lowerneck -15.4082 2.91229 2.08094
upperneck 36.8155 7.38699 -5.74311
head 16.0012 2.97265 -1.40951
rclavicle 4.21423e-014 -1.89839e-014
rhumerus -11.0453 1.24095 -102.955
rradius 38.7995
rwrist -55.3968
rhand -28.3248 -8.19635
rfingers 7.12502
rthumb -1.69966 -38.1693
lclavicle 4.21423e-014 -1.89839e-014
lhumerus 93.5141 -84.7502 0.693871
lradius 28.4291
lwrist 42.7662
lhand 2.32128 65.3238
lfingers 7.12502
lthumb -152.188 86.7143
rfemur -35.4828 3.25478 16.634
rtibia 30.336
rfoot -7.86326 -0.976512
rtoes 0.321366
lfemur -26.5733 15.1531 -5.93664
ltibia 33.2442
lfoot -12.3619 9.1402
ltoes -24.8532
107
root -6.68663 17.7244 0.634482 -8.17805 72.7011 -25.2716
lowerback 3.51322 2.61361 -5.95221
upperback 4.428 3.42579 3.17689
thorax 2.08697 1.54523 6.58433
lowerneck -15.2947 3.38017 2.26289
upperneck 36.6587 8.03394 -5.83829
head 15.9506 3.24739 -1.36715
rclavicle 7.25564e-015 5.96354e-015
rhumerus -11.301 1.74958 -102.786
rradius 39.8085
rwrist -56.4683
rhand -28.7168 -8.29711
rfingers 7.12502
rthumb -2.0782 -38.2667
lclavicle 7.25564e-015 5.96354e-015
lhumerus 92.619 -84.4807 1.65965
lradius 28.5306
lwrist 41.4504
lhand 2.63664 65.1635
lfingers 7.12502
lthumb -151.887 86.9237
rfemur -35.5347 3.16105 17.2217
rtibia 30.0456
rfoot -7.80649 0.0892946
rtoes 0.898982
lfemur -26.2035 15.2434 -5.4577
ltibia 33.2583
lfoot -12.364 9.89789
ltoes -24.6525
